<svg xmlns="http://www.w3.org/2000/svg" width="900" height="560" viewBox="0 0 900 560">
  <defs>
    <linearGradient id="bg" x1="0" x2="1" y1="0" y2="1">
      <stop offset="0" stop-color="#0f172a"/>
      <stop offset="1" stop-color="#1f2937"/>
    </linearGradient>
  </defs>
  <rect width="900" height="560" rx="36" fill="url(#bg)"/>
  <text x="64" y="76" fill="#ff7a1a" font-size="28" font-family="Arial, sans-serif" font-weight="700">AI 协作开发 · 从需求到发布</text>
  <text x="64" y="116" fill="#cbd5e1" font-size="22" font-family="Arial, sans-serif">用 AI Agent 协助实现，自己负责需求判断、测试反馈和产品取舍</text>
  <g font-family="Arial, sans-serif">
    <rect x="70" y="188" width="180" height="118" rx="22" fill="#1e293b" stroke="#334155"/>
    <text x="160" y="236" text-anchor="middle" fill="#f8fafc" font-size="24" font-weight="800">需求洞察</text>
    <text x="160" y="272" text-anchor="middle" fill="#cbd5e1" font-size="18">记录时间太麻烦</text>
    <rect x="270" y="188" width="180" height="118" rx="22" fill="#1e293b" stroke="#334155"/>
    <text x="360" y="236" text-anchor="middle" fill="#f8fafc" font-size="24" font-weight="800">AI 实现</text>
    <text x="360" y="272" text-anchor="middle" fill="#cbd5e1" font-size="18">Codex / Agent 协作</text>
    <rect x="470" y="188" width="180" height="118" rx="22" fill="#1e293b" stroke="#334155"/>
    <text x="560" y="236" text-anchor="middle" fill="#f8fafc" font-size="24" font-weight="800">内测反馈</text>
    <text x="560" y="272" text-anchor="middle" fill="#cbd5e1" font-size="18">朋友试用发现问题</text>
    <rect x="670" y="188" width="180" height="118" rx="22" fill="#1e293b" stroke="#334155"/>
    <text x="760" y="236" text-anchor="middle" fill="#f8fafc" font-size="24" font-weight="800">版本发布</text>
    <text x="760" y="272" text-anchor="middle" fill="#cbd5e1" font-size="18">Mac / Windows 包</text>
    <path d="M250 247H270M450 247H470M650 247H670" stroke="#ff7a1a" stroke-width="6" stroke-linecap="round"/>
    <rect x="110" y="366" width="680" height="82" rx="24" fill="#334155"/>
    <text x="450" y="400" text-anchor="middle" fill="#f8fafc" font-size="24" font-weight="800">迭代问题</text>
    <text x="450" y="432" text-anchor="middle" fill="#cbd5e1" font-size="19">暂停统计 · 小面板同步 · 固定任务编辑 · Windows 解压误点</text>
  </g>
</svg>
