<svg xmlns="http://www.w3.org/2000/svg" width="900" height="560" viewBox="0 0 900 560">
  <defs>
    <linearGradient id="bg" x1="0" x2="1" y1="0" y2="1">
      <stop offset="0" stop-color="#0f172a"/>
      <stop offset="1" stop-color="#1f2937"/>
    </linearGradient>
  </defs>
  <rect width="900" height="560" rx="36" fill="url(#bg)"/>
  <text x="64" y="76" fill="#ff7a1a" font-size="28" font-family="Arial, sans-serif" font-weight="700">完整面板 · 任务与复盘</text>
  <text x="64" y="116" fill="#cbd5e1" font-size="22" font-family="Arial, sans-serif">从快速计时延伸到今日任务、待办池、分类统计和时间线</text>
  <rect x="64" y="162" width="350" height="310" rx="24" fill="#f8fafc"/>
  <text x="98" y="212" fill="#111827" font-size="32" font-family="Arial, sans-serif" font-weight="800">今日任务</text>
  <rect x="98" y="246" width="280" height="58" rx="16" fill="#eef2f7" stroke="#d8dee8"/>
  <text x="122" y="284" fill="#111827" font-size="24" font-family="Arial, sans-serif" font-weight="700">修改简历网页</text>
  <rect x="98" y="322" width="280" height="58" rx="16" fill="#e3f6ef"/>
  <text x="122" y="360" fill="#417b6b" font-size="24" font-family="Arial, sans-serif" font-weight="700">Good Time 迭代</text>
  <rect x="98" y="398" width="130" height="44" rx="22" fill="#7fcdb5"/>
  <text x="163" y="428" text-anchor="middle" fill="white" font-size="20" font-family="Arial, sans-serif" font-weight="700">开始</text>
  <rect x="486" y="162" width="350" height="310" rx="24" fill="#f8fafc"/>
  <text x="520" y="212" fill="#111827" font-size="32" font-family="Arial, sans-serif" font-weight="800">分类统计</text>
  <rect x="520" y="246" width="230" height="42" rx="21" fill="#e3f6ef"/>
  <text x="546" y="274" fill="#417b6b" font-size="21" font-family="Arial, sans-serif" font-weight="700">项目 3小时40分</text>
  <rect x="520" y="306" width="190" height="42" rx="21" fill="#e8f4ff"/>
  <text x="546" y="334" fill="#2f80ad" font-size="21" font-family="Arial, sans-serif" font-weight="700">工作 2小时10分</text>
  <rect x="520" y="366" width="250" height="42" rx="21" fill="#fff1f2"/>
  <text x="546" y="394" fill="#b34251" font-size="21" font-family="Arial, sans-serif" font-weight="700">生活 58分钟</text>
  <text x="520" y="446" fill="#64748b" font-size="21" font-family="Arial, sans-serif">支持复制日报 / 导出 CSV</text>
</svg>
